<?xml version="1.0" encoding="UTF-8"?><svg id="Layer_2" xmlns="http://www.w3.org/2000/svg" viewBox="0 0 193.16 82.13"><defs><style>.cls-1{fill:#231f20;}</style></defs><g id="Layer_1-2"><path d="m98.63,36.92l9.18,33.58,9.6-33.58h11.47l-14.62,44.9h-12.07l-4.33-13.21-3.74-14.94-3.74,14.94-4.33,13.21h-12.07l-14.7-44.9h11.56l9.6,33.58,9.09-33.58h9.09Z"/><path d="m39.34,36.92l9.18,33.58,9.6-33.58h11.47l-14.62,44.9h-12.07l-4.33-13.21-3.74-14.94-3.74,14.94-4.33,13.21h-12.07L0,36.92h11.56l9.6,33.58,9.09-33.58h9.09Z"/><path d="m157,36.92l9.18,33.58,9.6-33.58h11.47l-14.62,44.9h-12.07l-4.33-13.22-3.74-14.93-3.74,14.93-4.33,13.22h-12.07l-14.7-44.9h11.56l9.6,33.58,9.09-33.58h9.09Z"/><path d="m193.16,77.91c0,5.62-8,5.62-8,0s8-5.62,8,0Z"/><path class="cls-1" d="m28.22,31.47c-1.46-2.84-6.2-3.59-10.89-4.3-6.76-1.06-13.45-2.24-13.52-8.77-.07-6.4,6.76-9.17,13.81-9.1,5.07,0,9.51,1.32,12.96,4.35l-2.11,2.11c-3.52-2.9-6.97-3.43-10.84-3.43-5.42-.07-10.64,1.85-10.5,6,.14,4.35,6.2,5.21,10.57,5.94,5.49.88,12.79,1.75,14.15,7.2"/><path class="cls-1" d="m42.19,31.48V12.53h-7.39v-2.7h7.39V.33l3.38-.33v9.83h11.83v2.7h-11.83v18.94"/><path class="cls-1" d="m63.24,31.48V9.83h3.24l.14,5.8c2.18-4.42,7.11-6.13,11.55-6.13,2.61-.07,5.14.59,7.46,1.91l-1.55,2.64c-1.83-1.05-3.87-1.52-5.92-1.52-6.48.07-11.48,4.95-11.48,10.88v8.06"/><path class="cls-1" d="m87.55,31.51c-.52-1.65-.79-3.45-.79-5.39,0-9.76,7.89-16.82,17.68-16.82s18.52,5.61,17.18,18.34h-31.34c.13,1.39.44,2.67.91,3.84m27.34-6.68c-.07-8.05-5.7-12.53-14.09-12.53-7.18,0-13.38,4.55-14.16,12.53h28.24Z"/><path class="cls-1" d="m127.27,31.51c-.52-1.65-.79-3.45-.79-5.39,0-9.76,7.89-16.82,17.68-16.82s18.52,5.61,17.18,18.34h-31.34c.13,1.39.44,2.67.91,3.84m27.34-6.68c-.07-8.05-5.7-12.53-14.09-12.53-7.18,0-13.38,4.55-14.16,12.53h28.24Z"/><path class="cls-1" d="m171.26,31.48V12.53h-7.4v-2.7h7.4V.33l3.38-.33v9.83h11.83v2.7h-11.83v18.94"/></g></svg>